<svg width="150" height="25" viewBox="0 0 150 25" fill="none" xmlns="http://www.w3.org/2000/svg">
<path d="M21.0321 24.3333L13 20.2541L4.96795 24.3333L6.5019 15.6936L0 9.57468L8.98121 8.31449L13 0.333313L17.0188 8.31449L26 9.57468L19.4981 15.6936L21.0321 24.3333Z" fill="black"/>
<path d="M83.0321 24.3333L75 20.2541L66.9679 24.3333L68.5019 15.6936L62 9.57468L70.9812 8.31449L75 0.333313L79.0188 8.31449L88 9.57468L81.4981 15.6936L83.0321 24.3333Z" fill="black"/>
<path d="M114.032 24.3333L106 20.2541L97.9679 24.3333L99.5019 15.6936L93 9.57468L101.981 8.31449L106 0.333313L110.019 8.31449L119 9.57468L112.498 15.6936L114.032 24.3333Z" fill="black"/>
<path d="M52.0321 24.3333L44 20.2541L35.9679 24.3333L37.5019 15.6936L31 9.57468L39.9812 8.31449L44 0.333313L48.0188 8.31449L57 9.57468L50.4981 15.6936L52.0321 24.3333Z" fill="black"/>
<path d="M145.032 24L137 19.9208L128.968 24L130.502 15.3603L124 9.24136L132.981 7.98118L137 0L141.019 7.98118L150 9.24136L143.498 15.3603L145.032 24ZM137 18.2582L143.009 21.3098L141.861 14.8462L146.725 10.269L140.002 9.32564L137 3.36447L133.998 9.32559L127.275 10.2689L132.139 14.8462L130.991 21.3097L137 18.2582Z" fill="black"/>
</svg>
