<svg width="70" height="17" viewBox="0 0 70 17" fill="none" xmlns="http://www.w3.org/2000/svg">
<path d="M5.754 16.1318C4.61 16.1318 3.51 15.9484 2.454 15.5818C1.41267 15.2151 0.606 14.7311 0.034 14.1298L0.672 12.8758C1.22933 13.4331 1.97 13.8878 2.894 14.2398C3.818 14.5771 4.77133 14.7458 5.754 14.7458C7.13267 14.7458 8.16667 14.4964 8.856 13.9978C9.54533 13.4844 9.89 12.8244 9.89 12.0178C9.89 11.4018 9.69933 10.9104 9.318 10.5438C8.95133 10.1771 8.49667 9.89842 7.954 9.70776C7.41133 9.50242 6.656 9.28242 5.688 9.04776C4.52933 8.75442 3.60533 8.47576 2.916 8.21176C2.22667 7.93309 1.63267 7.51509 1.134 6.95776C0.65 6.40042 0.408 5.64509 0.408 4.69176C0.408 3.91442 0.613333 3.21042 1.024 2.57976C1.43467 1.93442 2.06533 1.42109 2.916 1.03976C3.76667 0.658422 4.82267 0.467755 6.084 0.467755C6.964 0.467755 7.822 0.592422 8.658 0.841756C9.50867 1.07642 10.242 1.40642 10.858 1.83175L10.308 3.12976C9.66267 2.70442 8.97333 2.38909 8.24 2.18376C7.50667 1.96376 6.788 1.85376 6.084 1.85376C4.73467 1.85376 3.71533 2.11776 3.026 2.64575C2.35133 3.15909 2.014 3.82642 2.014 4.64776C2.014 5.26376 2.19733 5.76242 2.564 6.14376C2.94533 6.51042 3.41467 6.79642 3.972 7.00176C4.544 7.19242 5.30667 7.40509 6.26 7.63976C7.38933 7.91842 8.29867 8.19709 8.988 8.47576C9.692 8.73976 10.286 9.15042 10.77 9.70776C11.254 10.2504 11.496 10.9911 11.496 11.9298C11.496 12.7071 11.2833 13.4184 10.858 14.0638C10.4473 14.6944 9.80933 15.2004 8.944 15.5818C8.07867 15.9484 7.01533 16.1318 5.754 16.1318ZM59.0861 0.599755H60.7141V14.5918H69.3381V15.9998H59.0861V0.599755Z" fill="#CECECE"/>
<path d="M42.5528 0.599755V15.9998H40.9908V3.67976L34.9408 14.0418H34.1708L28.1208 3.74575V15.9998H26.5588V0.599755H27.9008L34.5888 12.0178L41.2108 0.599755H42.5528Z" fill="#0F0F0F"/>
</svg>
